<?xml version="1.0" encoding="UTF-8"?>
<svg width="100px" height="100px" viewBox="0 0 100 100" version="1.1" xmlns="http://www.w3.org/2000/svg" xmlns:xlink="http://www.w3.org/1999/xlink">
    <title>编组</title>
    <g id="页面-1" stroke="none" stroke-width="1" fill="none" fill-rule="evenodd">
        <g id="编组" fill-rule="nonzero">
            <rect id="矩形" fill="#060606" x="0" y="0" width="100" height="100"></rect>
            <g transform="translate(11.000000, 38.000000)">
                <rect id="矩形" fill-opacity="0" fill="#26125B" x="0" y="0" width="78" height="24"></rect>
                <g>
                    <g>
                        <rect id="矩形" fill-opacity="0" fill="#26125B" x="0" y="0" width="41.2563674" height="24"></rect>
                        <g transform="translate(2.045783, 2.230808)" fill="#FFFFFF" id="形状">
                            <path d="M13.100828,0 L20.0824861,0 L18.8889006,19.0747164 L12.9700241,19.3326488 L13.0231632,9.2773787 L10.3498585,17.3838261 L8.06896553,17.3838261 L6.01697936,10.1330593 L5.99245363,18.5547574 L0,18.7349007 L0.257520176,0.777891418 L6.92443141,0.519959 L9.57321037,9.12180041 L13.100828,0 Z M32.1082696,0.335721559 L37.1687455,17.825996 L30.7307411,18.6571115 L29.9540929,15.721595 L26.9946547,15.721595 L26.3488104,18.6571115 L19.7309507,18.0061392 L24.8936171,0.700102276 L32.1082696,0.335721559 Z M27.542396,11.7461604 L29.488104,11.7461604 L28.4988995,7.22210769 L27.542396,11.7461604 Z"></path>
                        </g>
                    </g>
                    <g transform="translate(41.256367, 0.000000)">
                        <g fill="#FFFFFF" id="矩形">
                            <rect x="0" y="0" width="36.7436326" height="24"></rect>
                        </g>
                        <g transform="translate(2.041871, 2.046571)" fill="#000000" id="形状">
                            <path d="M15.3122314,6.59979455 L15.3122314,6.59979455 C15.3122314,7.27669656 15.2536422,7.89082136 15.1364637,8.44216896 C15.0192852,8.99078712 14.8353422,9.49436946 14.5846348,9.95291598 C14.3339273,10.4114625 14.0096426,10.835891 13.6117808,11.2262014 C13.2139189,11.6165118 12.7343046,11.9890809 12.1729379,12.3439085 L12.1729379,12.3439085 L15.2590924,17.8546551 L9.42196836,18.9969272 L7.42312128,13.4616157 L5.81259827,13.5148398 L5.57960382,18.9191381 L0,18.9191381 C0.0436012997,16.9457504 0.0858400588,14.9791863 0.126716277,13.0194458 C0.164867415,11.0624348 0.209831255,9.0958707 0.261607798,7.11975355 L0.261607798,7.11975355 C0.277958286,6.12350665 0.295671314,5.1368128 0.314746882,4.159672 C0.33109737,3.17980176 0.365160885,2.19174319 0.416937429,1.19549628 L0.416937429,1.19549628 C1.02190546,0.971681911 1.61869825,0.786079748 2.2073158,0.638689795 C2.79593334,0.491299843 3.38591343,0.376663213 3.97725606,0.294779906 C4.57132377,0.210167155 5.17220418,0.15284884 5.77989729,0.122824961 C6.39031549,0.0928010814 7.01572163,0.0777891418 7.65611572,0.0777891418 L7.65611572,0.0777891418 C8.64259513,0.0777891418 9.59637356,0.21426132 10.517451,0.487205677 C11.4385285,0.760150034 12.2533278,1.16956657 12.9618489,1.71545528 C13.67037,2.261344 14.2385494,2.94097545 14.6663872,3.75434963 C15.09695,4.57045326 15.3122314,5.5189349 15.3122314,6.59979455 Z M9.49963318,7.01739942 L9.49963318,7.01739942 C9.49963318,6.65438342 9.44921917,6.32139131 9.34839117,6.01842307 C9.25028824,5.71545484 9.10313386,5.45342825 8.90692801,5.23234332 C8.71344724,5.0112584 8.47227755,4.83793873 8.18341894,4.71238432 C7.89183525,4.58682992 7.5512001,4.52405272 7.16151348,4.52405272 L7.16151348,4.52405272 C6.98983336,4.52405272 6.82224087,4.53497049 6.65873599,4.55680604 C6.49250604,4.57591215 6.33172624,4.60730075 6.17639661,4.65097184 L6.17639661,4.65097184 L5.9679279,9.48618113 L6.28267478,9.48618113 C6.65328583,9.48618113 7.03070958,9.43841587 7.41494603,9.34288534 C7.80190757,9.24735482 8.14799289,9.09996486 8.45320198,8.90071548 C8.76113616,8.7014661 9.01184364,8.44626313 9.2053244,8.13510656 C9.40153025,7.82394999 9.49963318,7.45138095 9.49963318,7.01739942 Z M26.115816,0 L32.656011,0.519959 L26.4019495,9.17502456 L31.6708941,18.3746141 L25.6498271,19.4390971 L21.705272,13.8259964 L21.5008909,19.7011237 L16.1011425,19.905832 L16.5180799,0 L22.5636726,0.339815725 L22.0976837,6.21084884 L26.115816,0 Z"></path>
                        </g>
                    </g>
                </g>
            </g>
        </g>
    </g>
</svg>